<?xml version="1.0" standalone="no"?><!DOCTYPE svg PUBLIC "-//W3C//DTD SVG 1.1//EN" "http://www.w3.org/Graphics/SVG/1.1/DTD/svg11.dtd"><svg t="1557243522657" class="icon" style="" viewBox="0 0 1024 1024" version="1.1" xmlns="http://www.w3.org/2000/svg" p-id="2066" xmlns:xlink="http://www.w3.org/1999/xlink" width="16" height="16"><defs><style type="text/css"></style></defs><path d="M 946.594 150.038 l -0.781491 -0.786909 c -100.806 -100.8 -265.752 -100.8 -366.55 0 L 512.303 216.208 l -66.9572 -66.9566 c -100.806 -100.8 -265.752 -100.8 -366.557 0 l -0.780889 0.786909 c -100.8 100.8 -100.8 265.751 0 366.55 L 144.966 583.547 l -0.841698 0.840494 l 367.339 367.338 l 0.841096 -0.840494 l 0.841698 0.840494 l 367.337 -367.338 l -0.847719 -0.840494 l 66.959 -66.959 c 100.804 -100.799 100.804 -265.75 0 -366.551 Z M 199.615 526.309 c -19.9467 0 -36.122 -16.1681 -36.122 -36.116 c 0 -19.9551 16.1753 -36.122 36.122 -36.122 c 19.9551 0 36.1238 16.1675 36.1238 36.122 c 0 19.9485 -16.1687 36.116 -36.1238 36.116 Z m 50.3357 -321 c -35.5446 16.439 -59.1922 34.6896 -75.571 70.4365 c -16.1729 35.2803 -12.7254 71.0085 -2.78459 108.748 c 3.78704 14.3546 -3.95201 28.979 -17.4589 33.8907 a 27.1439 27.1439 0 0 1 -2.52509 0.792931 c -15.05 3.91528 -30.4974 -5.24285 -34.5187 -20.4777 c -13.3154 -50.5808 -15.5889 -99.9682 6.07853 -147.248 c 21.9588 -47.9076 55.3221 -75.9389 102.934 -97.9711 c 14.0512 -6.49216 30.8888 -0.215542 37.4736 14.0957 c 6.57945 14.3107 0.481056 31.2048 -13.6279 37.7325 Z m 0 0" p-id="2067" fill="#bfbfbf"></path></svg>